HIERARCHY
ROOT hip
{
OFFSET -0.10 89.68 -0.66
CHANNELS 6 Xposition Yposition Zposition Zrotation Xrotation Yrotation
JOINT abdomen
{
OFFSET 0 7.23 0
CHANNELS 6 Xposition Yposition Zposition Zrotation Xrotation Yrotation
JOINT chest
{
OFFSET 0 16.54 0
CHANNELS 6 Xposition Yposition Zposition Zrotation Xrotation Yrotation
JOINT neck
{
OFFSET 0 34.21 0
CHANNELS 6 Xposition Yposition Zposition Zrotation Xrotation Yrotation
JOINT head
{
OFFSET 0 6.29 0
CHANNELS 6 Xposition Yposition Zposition Zrotation Xrotation Yrotation
End Site
{
OFFSET 0 21.21 0
}
}
}
JOINT lCollar
{
OFFSET 4.06 26.61 -1.12
CHANNELS 6 Xposition Yposition Zposition Zrotation Xrotation Yrotation
JOINT lShldr
{
OFFSET 14.17 0 0
CHANNELS 6 Xposition Yposition Zposition Zrotation Xrotation Yrotation
JOINT lForeArm
{
OFFSET 26.12 0 0
CHANNELS 6 Xposition Yposition Zposition Zrotation Xrotation Yrotation
JOINT lHand
{
OFFSET 27.71 0 0
CHANNELS 6 Xposition Yposition Zposition Zrotation Xrotation Yrotation
JOINT lThumb1
{
OFFSET 2.29 -0.46 1.83
CHANNELS 6 Xposition Yposition Zposition Zrotation Xrotation Yrotation
JOINT lThumb2
{
OFFSET 5.29 0 0
CHANNELS 6 Xposition Yposition Zposition Zrotation Xrotation Yrotation
JOINT lThumb3
{
OFFSET 3.01 0 0
CHANNELS 6 Xposition Yposition Zposition Zrotation Xrotation Yrotation
End Site
{
OFFSET 2.62 0 0
}
}
}
}
JOINT lIndex1
{
OFFSET 9.37 0.29 2.59
CHANNELS 6 Xposition Yposition Zposition Zrotation Xrotation Yrotation
JOINT lIndex2
{
OFFSET 4.34 0 0
CHANNELS 6 Xposition Yposition Zposition Zrotation Xrotation Yrotation
JOINT lIndex3
{
OFFSET 2.16 0 0
CHANNELS 6 Xposition Yposition Zposition Zrotation Xrotation Yrotation
End Site
{
OFFSET 2.20 0 0
}
}
}
}
JOINT lMid1
{
OFFSET 9.47 0.83 0.29
CHANNELS 6 Xposition Yposition Zposition Zrotation Xrotation Yrotation
JOINT lMid2
{
OFFSET 4.77 0 0
CHANNELS 6 Xposition Yposition Zposition Zrotation Xrotation Yrotation
JOINT lMid3
{
OFFSET 2.87 0 0
CHANNELS 6 Xposition Yposition Zposition Zrotation Xrotation Yrotation
End Site
{
OFFSET 2.09 0 0
}
}
}
}
JOINT lRing1
{
OFFSET 8.65 1.01 -1.70
CHANNELS 6 Xposition Yposition Zposition Zrotation Xrotation Yrotation
JOINT lRing2
{
OFFSET 4.54 0 0
CHANNELS 6 Xposition Yposition Zposition Zrotation Xrotation Yrotation
JOINT lRing3
{
OFFSET 2.50 0 0
CHANNELS 6 Xposition Yposition Zposition Zrotation Xrotation Yrotation
End Site
{
OFFSET 2.20 0 0
}
}
}
}
JOINT lPinky1
{
OFFSET 7.69 0.66 -3.90
CHANNELS 6 Xposition Yposition Zposition Zrotation Xrotation Yrotation
JOINT lPinky2
{
OFFSET 3.21 0 0
CHANNELS 6 Xposition Yposition Zposition Zrotation Xrotation Yrotation
JOINT lPinky3
{
OFFSET 1.92 0 0
CHANNELS 6 Xposition Yposition Zposition Zrotation Xrotation Yrotation
End Site
{
OFFSET 1.78 0 0
}
}
}
}
}
}
}
}
JOINT rCollar
{
OFFSET -4.06 26.61 -1.12
CHANNELS 6 Xposition Yposition Zposition Zrotation Xrotation Yrotation
JOINT rShldr
{
OFFSET -14.17 0 0
CHANNELS 6 Xposition Yposition Zposition Zrotation Xrotation Yrotation
JOINT rForeArm
{
OFFSET -26.12 0 0
CHANNELS 6 Xposition Yposition Zposition Zrotation Xrotation Yrotation
JOINT rHand
{
OFFSET -27.71 0 0
CHANNELS 6 Xposition Yposition Zposition Zrotation Xrotation Yrotation
JOINT rThumb1
{
OFFSET -2.29 -0.46 1.83
CHANNELS 6 Xposition Yposition Zposition Zrotation Xrotation Yrotation
JOINT rThumb2
{
OFFSET -5.29 0 0
CHANNELS 6 Xposition Yposition Zposition Zrotation Xrotation Yrotation
JOINT rThumb3
{
OFFSET -3.01 0 0
CHANNELS 6 Xposition Yposition Zposition Zrotation Xrotation Yrotation
End Site
{
OFFSET -2.62 0 0
}
}
}
}
JOINT rIndex1
{
OFFSET -9.37 0.29 2.59
CHANNELS 6 Xposition Yposition Zposition Zrotation Xrotation Yrotation
JOINT rIndex2
{
OFFSET -4.34 0 0
CHANNELS 6 Xposition Yposition Zposition Zrotation Xrotation Yrotation
JOINT rIndex3
{
OFFSET -2.16 0 0
CHANNELS 6 Xposition Yposition Zposition Zrotation Xrotation Yrotation
End Site
{
OFFSET -2.20 0 0
}
}
}
}
JOINT rMid1
{
OFFSET -9.47 0.83 0.29
CHANNELS 6 Xposition Yposition Zposition Zrotation Xrotation Yrotation
JOINT rMid2
{
OFFSET -4.77 0 0
CHANNELS 6 Xposition Yposition Zposition Zrotation Xrotation Yrotation
JOINT rMid3
{
OFFSET -2.87 0 0
CHANNELS 6 Xposition Yposition Zposition Zrotation Xrotation Yrotation
End Site
{
OFFSET -2.09 0 0
}
}
}
}
JOINT rRing1
{
OFFSET -8.65 1.01 -1.70
CHANNELS 6 Xposition Yposition Zposition Zrotation Xrotation Yrotation
JOINT rRing2
{
OFFSET -4.54 0 0
CHANNELS 6 Xposition Yposition Zposition Zrotation Xrotation Yrotation
JOINT rRing3
{
OFFSET -2.50 0 0
CHANNELS 6 Xposition Yposition Zposition Zrotation Xrotation Yrotation
End Site
{
OFFSET -2.20 0 0
}
}
}
}
JOINT rPinky1
{
OFFSET -7.69 0.66 -3.90
CHANNELS 6 Xposition Yposition Zposition Zrotation Xrotation Yrotation
JOINT rPinky2
{
OFFSET -3.21 0 0
CHANNELS 6 Xposition Yposition Zposition Zrotation Xrotation Yrotation
JOINT rPinky3
{
OFFSET -1.92 0 0
CHANNELS 6 Xposition Yposition Zposition Zrotation Xrotation Yrotation
End Site
{
OFFSET -1.78 0 0
}
}
}
}
}
}
}
}
}
}
JOINT lThigh
{
OFFSET 8.73 -0 0
CHANNELS 6 Xposition Yposition Zposition Zrotation Xrotation Yrotation
JOINT lShin
{
OFFSET 0 -46.66 0
CHANNELS 6 Xposition Yposition Zposition Zrotation Xrotation Yrotation
JOINT lFoot
{
OFFSET 0 -40.14 0
CHANNELS 6 Xposition Yposition Zposition Zrotation Xrotation Yrotation
JOINT lToes
{
OFFSET 0 -8.88 14.22
CHANNELS 6 Xposition Yposition Zposition Zrotation Xrotation Yrotation
End Site
{
OFFSET 0 0 6.29
}
}
}
}
}
JOINT rThigh
{
OFFSET -8.73 0 -0
CHANNELS 6 Xposition Yposition Zposition Zrotation Xrotation Yrotation
JOINT rShin
{
OFFSET 0 -46.66 0
CHANNELS 6 Xposition Yposition Zposition Zrotation Xrotation Yrotation
JOINT rFoot
{
OFFSET 0 -40.14 0
CHANNELS 6 Xposition Yposition Zposition Zrotation Xrotation Yrotation
JOINT rToes
{
OFFSET 0 -8.88 14.22
CHANNELS 6 Xposition Yposition Zposition Zrotation Xrotation Yrotation
End Site
{
OFFSET 0 0 6.29
}
}
}
}
}
}
MOTION
Frames: 8
Frame Time: 0.03
-0.10 89.68 -0.66 -3.12 -3.31 -43.31 0 7.23 0 -1.87 6.96 7.99 0 16.54 0 -4.67 15.51 16.45 0 34.21 0 0.82 26.87 -1.44 0 6.29 0 -1.77 -28.46 19.53 4.06 26.61 -1.12 -1.67 -3.42 4.16 14.17 0 0 -69.69 -1.29 -3.25 26.12 0 0 3.37 5.76 -48.05 27.71 0 0 14.07 12.10 -1.83 2.29 -0.46 1.83 61.44 74.02 -94.47 5.29 0 0 0.21 3.01 0.80 3.01 0 0 12.48 0 0 9.37 0.29 2.59 0.51 -1.66 -8.47 4.34 0 0 -16.25 -0.15 2.43 2.16 0 0 -2.16 0 0 9.47 0.83 0.29 -7.79 -4.31 9.25 4.77 0 0 -21.86 -0.37 1.61 2.87 0 0 3.95 0.07 0.39 8.65 1.01 -1.70 -24.65 -2.57 14.88 4.54 0 0 -32.06 0.65 -1.53 2.50 0 0 6.76 0 -0 7.69 0.66 -3.90 -23.65 -14.85 19.28 3.21 0 0 -39.59 0.08 3.59 1.92 0 0 4.41 0 0 -4.06 26.61 -1.12 5.15 -2.72 4.26 -14.17 0 0 61.25 -12.08 -21.37 -26.12 0 0 6.56 -1.04 42.19 -27.71 0 0 17.41 5.73 8.30 -2.29 -0.46 1.83 -37.31 60.59 62.83 -5.29 0 0 19.97 1.42 -7.53 -3.01 0 0 -12.48 0 0 -9.37 0.29 2.59 -0.59 -2.43 0.29 -4.34 0 0 16.74 -0.16 -2.82 -2.16 0 0 2.16 0 0 -9.47 0.83 0.29 7.28 -5.19 -1.95 -4.77 0 0 30.49 -0.76 -2.53 -2.87 0 0 -3.95 0.07 -0.39 -8.65 1.01 -1.70 16.18 2.38 -7.76 -4.54 0 0 37.48 1.09 2.36 -2.50 0 0 -6.76 0 0 -7.69 0.66 -3.90 16.30 -9.18 -10.92 -3.21 0 0 41.69 0.75 -1.95 -1.92 0 0 -4.41 0 0 8.73 -0 0 14.84 -23.18 20.50 0 -46.66 0 7.40 38.99 -16.98 0 -40.14 0 -7.89 -10.30 7.23 0 -8.88 14.22 0 0 0 -8.73 0 -0 -15.03 -0.62 -22.58 0 -46.66 0 -4.68 38.63 -7.71 0 -40.14 0 20.97 -23.81 -3.40 0 -8.88 14.22 0 0 0 
-0.09 89.69 -0.67 -3.13 -3.32 -43.34 0 7.23 0 -1.87 6.95 7.99 0 16.54 0 -4.67 15.50 16.45 0 34.21 0 0.81 26.90 -1.44 0 6.29 0 -1.77 -28.42 19.51 4.06 26.61 -1.12 -1.67 -3.42 4.14 14.17 0 0 -69.68 -1.28 -3.25 26.12 0 0 3.36 5.76 -48.06 27.71 0 0 14.05 12.09 -1.82 2.29 -0.46 1.83 61.60 74.15 -94.67 5.29 0 0 0.21 3.01 0.80 3.01 0 0 12.48 0 0 9.37 0.29 2.59 0.43 -1.65 -8.46 4.34 0 0 -16.25 -0.15 2.43 2.16 0 0 -2.16 0 0 9.47 0.83 0.29 -7.82 -4.31 9.24 4.77 0 0 -21.87 -0.37 1.61 2.87 0 0 3.95 0.07 0.39 8.65 1.01 -1.70 -24.67 -2.57 14.87 4.54 0 0 -32.07 0.65 -1.53 2.50 0 0 6.76 0 -0 7.69 0.66 -3.90 -23.69 -14.86 19.27 3.21 0 0 -39.61 0.08 3.59 1.92 0 0 4.41 0 0 -4.06 26.61 -1.12 5.10 -2.72 4.25 -14.17 0 0 61.28 -12.06 -21.35 -26.12 0 0 6.57 -0.99 42.20 -27.71 0 0 17.37 5.70 8.29 -2.29 -0.46 1.83 -37.10 60.58 62.51 -5.29 0 0 19.99 1.46 -7.46 -3.01 0 0 -12.48 0 0 -9.37 0.29 2.59 -0.67 -2.43 0.31 -4.34 0 0 16.70 -0.16 -2.82 -2.16 0 0 2.16 0 0 -9.47 0.83 0.29 7.32 -5.19 -1.96 -4.77 0 0 30.44 -0.76 -2.52 -2.87 0 0 -3.95 0.07 -0.39 -8.65 1.01 -1.70 16.18 2.38 -7.77 -4.54 0 0 37.43 1.08 2.36 -2.50 0 0 -6.76 0 0 -7.69 0.66 -3.90 16.32 -9.18 -10.92 -3.21 0 0 41.71 0.75 -1.95 -1.92 0 0 -4.41 0 0 8.73 -0 0 14.83 -23.14 20.50 0 -46.66 0 7.40 38.94 -16.96 0 -40.14 0 -7.89 -10.27 7.23 0 -8.88 14.22 0 0 0 -8.73 0 -0 -15.03 -0.61 -22.58 0 -46.66 0 -4.67 38.61 -7.69 0 -40.14 0 20.94 -23.79 -3.41 0 -8.88 14.22 0 0 -0 
-0.08 89.70 -0.68 -3.14 -3.33 -43.35 0 7.23 0 -1.87 6.94 7.99 0 16.54 0 -4.66 15.48 16.45 0 34.21 0 0.80 26.97 -1.44 0 6.29 0 -1.74 -28.35 19.50 4.06 26.61 -1.12 -1.64 -3.41 4.14 14.17 0 0 -69.69 -1.27 -3.26 26.12 0 0 3.36 5.74 -48.07 27.71 0 0 13.99 12.07 -1.79 2.29 -0.46 1.83 61.68 74.23 -94.77 5.29 0 0 0.20 3.01 0.79 3.01 0 0 12.48 0 0 9.37 0.29 2.59 0.38 -1.64 -8.46 4.34 0 0 -16.30 -0.15 2.44 2.16 0 0 -2.16 0 0 9.47 0.83 0.29 -7.86 -4.32 9.22 4.77 0 0 -21.88 -0.37 1.62 2.87 0 0 3.95 0.07 0.39 8.65 1.01 -1.70 -24.73 -2.58 14.85 4.54 0 0 -32.09 0.65 -1.53 2.50 0 0 6.76 0 -0 7.69 0.66 -3.90 -23.73 -14.87 19.25 3.21 0 0 -39.62 0.08 3.59 1.92 0 0 4.41 0 0 -4.06 26.61 -1.12 5.02 -2.73 4.22 -14.17 0 0 61.33 -12.02 -21.32 -26.12 0 0 6.59 -0.89 42.20 -27.71 0 0 17.29 5.63 8.27 -2.29 -0.46 1.83 -37.00 60.58 62.36 -5.29 0 0 20.07 1.44 -7.43 -3.01 0 0 -12.48 0 0 -9.37 0.29 2.59 -0.78 -2.43 0.33 -4.34 0 0 16.66 -0.16 -2.82 -2.16 0 0 2.16 0 0 -9.47 0.83 0.29 7.32 -5.19 -1.98 -4.77 0 0 30.42 -0.76 -2.52 -2.87 0 0 -3.95 0.07 -0.39 -8.65 1.01 -1.70 16.18 2.38 -7.78 -4.54 0 0 37.43 1.08 2.36 -2.50 0 0 -6.76 0 0 -7.69 0.66 -3.90 16.34 -9.19 -10.92 -3.21 0 0 41.75 0.74 -1.95 -1.92 0 0 -4.41 0 0 8.73 -0 0 14.82 -23.11 20.49 0 -46.66 0 7.40 38.90 -16.94 0 -40.14 0 -7.90 -10.24 7.23 0 -8.88 14.22 0 0 0 -8.73 0 -0 -15.04 -0.59 -22.57 0 -46.66 0 -4.65 38.58 -7.68 0 -40.14 0 20.92 -23.77 -3.42 0 -8.88 14.22 0 0 0 
-0.07 89.71 -0.68 -3.16 -3.34 -43.35 0 7.23 0 -1.86 6.93 7.99 0 16.54 0 -4.64 15.45 16.44 0 34.21 0 0.79 27.07 -1.44 0 6.29 0 -1.68 -28.21 19.51 4.06 26.61 -1.12 -1.55 -3.41 4.16 14.17 0 0 -69.75 -1.25 -3.26 26.12 0 0 3.35 5.73 -48.11 27.71 0 0 13.89 12.06 -1.75 2.29 -0.46 1.83 61.71 74.28 -94.78 5.29 0 0 0.18 3.01 0.79 3.01 0 0 12.48 0 0 9.37 0.29 2.59 0.35 -1.64 -8.46 4.34 0 0 -16.36 -0.15 2.44 2.16 0 0 -2.16 0 0 9.47 0.83 0.29 -7.91 -4.33 9.18 4.77 0 0 -21.90 -0.37 1.62 2.87 0 0 3.95 0.07 0.39 8.65 1.01 -1.70 -24.80 -2.59 14.80 4.54 0 0 -32.10 0.65 -1.53 2.50 0 0 6.76 0 -0 7.69 0.66 -3.90 -23.78 -14.88 19.20 3.21 0 0 -39.64 0.07 3.59 1.92 0 0 4.41 0 0 -4.06 26.61 -1.12 4.90 -2.74 4.18 -14.17 0 0 61.43 -11.97 -21.30 -26.12 0 0 6.63 -0.74 42.23 -27.71 0 0 17.17 5.51 8.23 -2.29 -0.46 1.83 -36.93 60.61 62.27 -5.29 0 0 20.17 1.41 -7.43 -3.01 0 0 -12.48 0 0 -9.37 0.29 2.59 -0.89 -2.43 0.34 -4.34 0 0 16.66 -0.16 -2.82 -2.16 0 0 2.16 0 0 -9.47 0.83 0.29 7.31 -5.19 -1.98 -4.77 0 0 30.41 -0.76 -2.52 -2.87 0 0 -3.95 0.07 -0.39 -8.65 1.01 -1.70 16.16 2.38 -7.79 -4.54 0 0 37.41 1.08 2.36 -2.50 0 0 -6.76 0 0 -7.69 0.66 -3.90 16.36 -9.19 -10.91 -3.21 0 0 41.74 0.75 -1.95 -1.92 0 0 -4.41 0 0 8.73 -0 0 14.81 -23.08 20.49 0 -46.66 0 7.40 38.87 -16.94 0 -40.14 0 -7.90 -10.22 7.23 0 -8.88 14.22 0 0 0 -8.73 0 -0 -15.03 -0.56 -22.56 0 -46.66 0 -4.64 38.53 -7.70 0 -40.14 0 20.91 -23.74 -3.43 0 -8.88 14.22 0 0 0 
-0.06 89.72 -0.66 -3.19 -3.35 -43.33 0 7.23 0 -1.85 6.91 7.98 0 16.54 0 -4.62 15.41 16.41 0 34.21 0 0.80 27.21 -1.44 0 6.29 0 -1.60 -28.00 19.55 4.06 26.61 -1.12 -1.40 -3.40 4.21 14.17 0 0 -69.85 -1.23 -3.25 26.12 0 0 3.34 5.73 -48.18 27.71 0 0 13.72 12.04 -1.71 2.29 -0.46 1.83 61.71 74.31 -94.77 5.29 0 0 0.18 3.01 0.79 3.01 0 0 12.48 0 0 9.37 0.29 2.59 0.35 -1.64 -8.47 4.34 0 0 -16.45 -0.16 2.43 2.16 0 0 -2.16 0 0 9.47 0.83 0.29 -7.97 -4.34 9.14 4.77 0 0 -21.94 -0.37 1.62 2.87 0 0 3.95 0.07 0.39 8.65 1.01 -1.70 -24.86 -2.59 14.73 4.54 0 0 -32.14 0.65 -1.53 2.50 0 0 6.76 0 -0 7.69 0.66 -3.90 -23.84 -14.90 19.14 3.21 0 0 -39.69 0.07 3.60 1.92 0 0 4.41 0 0 -4.06 26.61 -1.12 4.74 -2.75 4.13 -14.17 0 0 61.58 -11.92 -21.31 -26.12 0 0 6.68 -0.56 42.28 -27.71 0 0 17.01 5.36 8.19 -2.29 -0.46 1.83 -36.88 60.67 62.22 -5.29 0 0 20.27 1.39 -7.48 -3.01 0 0 -12.48 0 0 -9.37 0.29 2.59 -0.95 -2.42 0.35 -4.34 0 0 16.67 -0.16 -2.82 -2.16 0 0 2.16 0 0 -9.47 0.83 0.29 7.30 -5.19 -1.99 -4.77 0 0 30.35 -0.76 -2.52 -2.87 0 0 -3.95 0.07 -0.39 -8.65 1.01 -1.70 16.12 2.39 -7.79 -4.54 0 0 37.37 1.08 2.36 -2.50 0 0 -6.76 0 0 -7.69 0.66 -3.90 16.36 -9.19 -10.91 -3.21 0 0 41.68 0.75 -1.95 -1.92 0 0 -4.41 0 0 8.73 -0 0 14.79 -23.05 20.47 0 -46.66 0 7.41 38.83 -16.95 0 -40.14 0 -7.89 -10.21 7.23 0 -8.88 14.22 0 0 0 -8.73 0 -0 -15.01 -0.50 -22.55 0 -46.66 0 -4.61 38.46 -7.74 0 -40.14 0 20.91 -23.69 -3.44 0 -8.88 14.22 0 0 0 
-0.06 89.74 -0.64 -3.21 -3.36 -43.29 0 7.23 0 -1.83 6.88 7.95 0 16.54 0 -4.58 15.36 16.35 0 34.21 0 0.80 27.40 -1.43 0 6.29 0 -1.52 -27.75 19.60 4.06 26.61 -1.12 -1.21 -3.39 4.29 14.17 0 0 -69.96 -1.20 -3.21 26.12 0 0 3.33 5.75 -48.27 27.71 0 0 13.50 12.01 -1.65 2.29 -0.46 1.83 61.74 74.32 -94.77 5.29 0 0 0.18 3.01 0.79 3.01 0 0 12.48 0 0 9.37 0.29 2.59 0.33 -1.63 -8.47 4.34 0 0 -16.54 -0.16 2.43 2.16 0 0 -2.16 0 0 9.47 0.83 0.29 -8.03 -4.34 9.07 4.77 0 0 -22.01 -0.37 1.62 2.87 0 0 3.95 0.07 0.39 8.65 1.01 -1.70 -24.89 -2.60 14.65 4.54 0 0 -32.21 0.65 -1.54 2.50 0 0 6.76 0 -0 7.69 0.66 -3.90 -23.91 -14.92 19.07 3.21 0 0 -39.76 0.06 3.61 1.92 0 0 4.41 0 0 -4.06 26.61 -1.12 4.56 -2.76 4.05 -14.17 0 0 61.75 -11.86 -21.33 -26.12 0 0 6.72 -0.36 42.36 -27.71 0 0 16.85 5.18 8.14 -2.29 -0.46 1.83 -36.85 60.78 62.19 -5.29 0 0 20.38 1.36 -7.55 -3.01 0 0 -12.48 0 0 -9.37 0.29 2.59 -0.97 -2.42 0.36 -4.34 0 0 16.65 -0.16 -2.82 -2.16 0 0 2.16 0 0 -9.47 0.83 0.29 7.29 -5.19 -1.98 -4.77 0 0 30.25 -0.75 -2.51 -2.87 0 0 -3.95 0.07 -0.39 -8.65 1.01 -1.70 16.06 2.40 -7.78 -4.54 0 0 37.33 1.08 2.36 -2.50 0 0 -6.76 0 0 -7.69 0.66 -3.90 16.35 -9.19 -10.92 -3.21 0 0 41.58 0.75 -1.93 -1.92 0 0 -4.41 0 0 8.73 -0 0 14.78 -23.01 20.47 0 -46.66 0 7.40 38.81 -16.99 0 -40.14 0 -7.86 -10.20 7.23 0 -8.88 14.22 0 0 0 -8.73 0 -0 -15.00 -0.41 -22.54 0 -46.66 0 -4.58 38.36 -7.80 0 -40.14 0 20.91 -23.65 -3.44 0 -8.88 14.22 0 0 0 
-0.06 89.75 -0.61 -3.24 -3.39 -43.24 0 7.23 0 -1.81 6.85 7.92 0 16.54 0 -4.54 15.31 16.29 0 34.21 0 0.81 27.61 -1.43 0 6.29 0 -1.46 -27.49 19.66 4.06 26.61 -1.12 -1.00 -3.38 4.39 14.17 0 0 -70.04 -1.16 -3.16 26.12 0 0 3.31 5.80 -48.37 27.71 0 0 13.21 11.99 -1.59 2.29 -0.46 1.83 61.80 74.34 -94.80 5.29 0 0 0.19 3.01 0.80 3.01 0 0 12.48 0 0 9.37 0.29 2.59 0.29 -1.63 -8.48 4.34 0 0 -16.63 -0.17 2.43 2.16 0 0 -2.16 0 0 9.47 0.83 0.29 -8.09 -4.35 9.00 4.77 0 0 -22.08 -0.38 1.63 2.87 0 0 3.95 0.07 0.39 8.65 1.01 -1.70 -24.92 -2.62 14.57 4.54 0 0 -32.30 0.65 -1.54 2.50 0 0 6.76 0 -0 7.69 0.66 -3.90 -23.99 -14.95 19.00 3.21 0 0 -39.83 0.06 3.63 1.92 0 0 4.41 0 0 -4.06 26.61 -1.12 4.36 -2.76 3.94 -14.17 0 0 61.94 -11.79 -21.38 -26.12 0 0 6.77 -0.12 42.44 -27.71 0 0 16.71 5.00 8.09 -2.29 -0.46 1.83 -36.82 60.89 62.17 -5.29 0 0 20.50 1.34 -7.62 -3.01 0 0 -12.48 0 0 -9.37 0.29 2.59 -0.98 -2.42 0.37 -4.34 0 0 16.60 -0.15 -2.81 -2.16 0 0 2.16 0 0 -9.47 0.83 0.29 7.29 -5.19 -1.98 -4.77 0 0 30.15 -0.75 -2.51 -2.87 0 0 -3.95 0.07 -0.39 -8.65 1.01 -1.70 16.01 2.40 -7.79 -4.54 0 0 37.30 1.08 2.35 -2.50 0 0 -6.76 0 0 -7.69 0.66 -3.90 16.33 -9.19 -10.93 -3.21 0 0 41.52 0.76 -1.92 -1.92 0 0 -4.41 0 0 8.73 -0 0 14.76 -22.96 20.46 0 -46.66 0 7.39 38.78 -17.04 0 -40.14 0 -7.83 -10.20 7.24 0 -8.88 14.22 0 0 -0 -8.73 0 -0 -14.99 -0.30 -22.53 0 -46.66 0 -4.54 38.26 -7.86 0 -40.14 0 20.92 -23.60 -3.45 0 -8.88 14.22 0 0 0 
-0.06 89.77 -0.56 -3.26 -3.42 -43.20 0 7.23 0 -1.79 6.82 7.90 0 16.54 0 -4.50 15.25 16.25 0 34.21 0 0.80 27.82 -1.43 0 6.29 0 -1.39 -27.24 19.69 4.06 26.61 -1.12 -0.79 -3.36 4.49 14.17 0 0 -70.12 -1.12 -3.10 26.12 0 0 3.30 5.86 -48.44 27.71 0 0 12.88 11.98 -1.52 2.29 -0.46 1.83 61.87 74.37 -94.85 5.29 0 0 0.21 3.01 0.82 3.01 0 0 12.48 0 0 9.37 0.29 2.59 0.26 -1.62 -8.48 4.34 0 0 -16.75 -0.17 2.43 2.16 0 0 -2.16 0 0 9.47 0.83 0.29 -8.17 -4.37 8.90 4.77 0 0 -22.16 -0.38 1.63 2.87 0 0 3.95 0.07 0.39 8.65 1.01 -1.70 -25.00 -2.64 14.48 4.54 0 0 -32.39 0.65 -1.54 2.50 0 0 6.76 0 -0 7.69 0.66 -3.90 -24.08 -14.98 18.91 3.21 0 0 -39.90 0.05 3.64 1.92 0 0 4.41 0 0 -4.06 26.61 -1.12 4.15 -2.77 3.82 -14.17 0 0 62.13 -11.72 -21.44 -26.12 0 0 6.82 0.13 42.50 -27.71 0 0 16.59 4.84 8.03 -2.29 -0.46 1.83 -36.78 61.01 62.12 -5.29 0 0 20.63 1.31 -7.68 -3.01 0 0 -12.48 0 0 -9.37 0.29 2.59 -0.99 -2.42 0.38 -4.34 0 0 16.57 -0.15 -2.81 -2.16 0 0 2.16 0 0 -9.47 0.83 0.29 7.31 -5.19 -1.98 -4.77 0 0 30.08 -0.74 -2.50 -2.87 0 0 -3.95 0.07 -0.39 -8.65 1.01 -1.70 15.99 2.40 -7.81 -4.54 0 0 37.28 1.08 2.35 -2.50 0 0 -6.76 0 0 -7.69 0.66 -3.90 16.31 -9.18 -10.93 -3.21 0 0 41.53 0.76 -1.92 -1.92 0 0 -4.41 0 0 8.73 -0 0 14.73 -22.89 20.46 0 -46.66 0 7.37 38.74 -17.07 0 -40.14 0 -7.79 -10.20 7.24 0 -8.88 14.22 0 0 0 -8.73 0 -0 -14.99 -0.17 -22.53 0 -46.66 0 -4.51 38.13 -7.91 0 -40.14 0 20.93 -23.54 -3.46 0 -8.88 14.22 0 0 -0 
